<?xml version="1.0" standalone="no"?>
<!DOCTYPE svg PUBLIC "-//W3C//DTD SVG 20010904//EN"
 "http://www.w3.org/TR/2001/REC-SVG-20010904/DTD/svg10.dtd">
<svg version="1.0" xmlns="http://www.w3.org/2000/svg"
 width="700.000000pt" height="700.000000pt" viewBox="0 0 700.000000 700.000000"
 preserveAspectRatio="xMidYMid meet">
<metadata>
Created by potrace 1.11, written by Peter Selinger 2001-2013
</metadata>
<g transform="translate(0.000000,700.000000) scale(0.100000,-0.100000)"
fill="#000000" stroke="none">
<path d="M3275 6994 c-744 -60 -1360 -296 -1935 -740 -149 -115 -480 -446
-594 -594 -418 -543 -648 -1110 -728 -1795 -16 -143 -17 -587 0 -730 69 -590
249 -1092 563 -1565 140 -209 249 -342 448 -541 244 -244 459 -410 731 -566
951 -546 2113 -612 3125 -178 282 121 551 283 800 481 142 114 437 408 549
549 746 935 962 2170 580 3312 -118 355 -312 712 -560 1033 -114 148 -445 480
-594 594 -519 402 -1106 645 -1740 721 -129 15 -538 27 -645 19z m465 -283
l75 -6 -37 -23 c-51 -32 -96 -86 -127 -152 -20 -43 -25 -71 -26 -130 0 -66 5
-85 33 -142 39 -80 102 -139 178 -168 50 -18 78 -20 342 -20 304 0 329 -3 320
-46 -3 -19 -22 -19 -728 -24 l-725 -5 -50 -23 c-97 -45 -162 -130 -171 -225
-11 -115 -12 -116 -98 -206 -133 -139 -192 -245 -222 -399 -17 -90 -18 -363
-1 -409 23 -62 73 -119 128 -146 50 -25 62 -27 191 -27 163 0 219 16 295 85
68 60 101 125 115 227 11 80 14 85 61 136 28 28 53 52 57 52 6 0 230 -222 278
-275 2 -2 -4 -17 -12 -34 -51 -97 16 -201 128 -201 49 0 51 1 138 88 86 86 88
89 88 136 0 26 -6 59 -14 74 -8 15 -62 74 -120 132 -58 57 -106 107 -106 111
0 15 121 -15 186 -45 55 -26 96 -57 178 -137 59 -56 128 -130 153 -163 85
-112 138 -255 145 -391 l3 -60 -635 -5 c-635 -5 -635 -5 -692 -28 -69 -28
-162 -95 -206 -147 -49 -60 -92 -148 -107 -222 -17 -81 -20 -323 -4 -409 35
-192 201 -358 393 -393 33 -6 84 -11 113 -11 66 0 99 -20 113 -69 5 -20 10
-150 10 -292 0 -224 3 -266 20 -335 39 -153 95 -247 231 -390 109 -116 137
-170 149 -295 11 -109 18 -136 53 -204 51 -101 160 -180 281 -205 144 -29 287
43 341 174 9 20 20 79 24 131 6 53 18 113 29 138 31 70 379 641 445 730 33 44
126 148 207 232 166 171 186 205 178 300 -8 97 -84 175 -184 191 l-41 6 -6
151 c-4 119 -10 167 -27 222 -36 114 -92 213 -168 297 -42 47 -31 48 76 12
112 -37 178 -82 313 -210 77 -74 139 -124 178 -143 170 -86 364 -56 502 79
175 171 179 445 9 624 -27 29 -50 58 -50 64 0 9 90 12 340 12 l339 0 10 -37
c20 -74 50 -240 67 -363 25 -176 25 -613 1 -795 -118 -882 -563 -1649 -1263
-2176 -454 -341 -961 -548 -1541 -626 -178 -24 -617 -24 -793 1 -591 81 -1078
282 -1552 640 l-108 81 0 90 c0 149 30 274 98 410 57 114 86 150 302 370 208
211 260 276 320 395 76 152 100 261 107 495 9 292 -18 441 -110 605 -61 107
-181 226 -277 273 -80 40 -186 67 -261 67 -90 0 -133 24 -259 145 -167 161
-250 214 -407 261 -83 26 -101 28 -345 32 l-257 4 6 31 c3 18 25 100 48 183
222 780 744 1457 1450 1881 398 240 857 390 1330 438 136 13 427 17 555 6z
m1191 -332 c548 -274 1004 -694 1320 -1214 79 -130 200 -374 247 -497 l30 -77
-322 -3 c-310 -3 -323 -4 -371 -26 -113 -52 -180 -155 -179 -277 0 -89 23
-141 96 -220 69 -76 78 -92 78 -152 0 -77 -43 -131 -121 -153 -64 -19 -102 2
-227 122 -171 164 -294 237 -479 284 -52 13 -142 26 -208 30 l-115 7 0 86 c0
231 -71 446 -208 627 -73 96 -265 285 -345 337 -69 46 -144 80 -229 104 -53
15 -103 18 -313 18 l-250 0 -69 -33 c-49 -23 -92 -55 -153 -114 -99 -97 -139
-169 -155 -279 -15 -101 -24 -109 -115 -109 l-73 0 0 94 c0 193 35 280 170
422 108 113 147 185 157 287 l6 67 682 0 c421 0 703 4 736 10 132 25 221 109
255 241 36 138 -38 289 -174 356 l-57 28 -305 3 c-194 2 -309 7 -317 14 -16
13 -17 60 -1 76 9 9 120 12 440 12 l428 0 141 -71z m-374 -2561 c253 -257 272
-297 273 -574 0 -103 2 -115 31 -172 19 -39 46 -73 72 -93 23 -18 46 -36 51
-40 5 -5 -35 -54 -90 -111 -54 -57 -128 -143 -164 -191 -68 -90 -417 -660
-470 -766 -31 -63 -54 -146 -65 -243 -6 -54 -8 -58 -32 -58 -15 0 -38 13 -57
33 -30 30 -34 39 -44 134 -21 180 -73 289 -214 438 -175 187 -180 202 -187
595 l-6 305 -32 67 c-63 134 -168 204 -328 220 -149 15 -154 17 -200 59 -62
57 -70 88 -70 264 0 132 3 156 21 196 23 50 74 97 126 116 24 8 193 12 614 12
l580 1 191 -192z m-3702 53 c119 -35 176 -72 325 -215 161 -155 244 -196 435
-211 54 -4 97 -14 132 -31 91 -44 177 -160 217 -293 25 -85 23 -461 -3 -563
-41 -161 -85 -223 -336 -478 -110 -113 -217 -227 -236 -255 -100 -142 -156
-261 -199 -429 l-27 -108 -89 102 c-555 638 -841 1481 -784 2310 6 96 14 179
17 184 8 12 500 1 548 -13z"/>
<path d="M2501 6363 c-65 -33 -71 -55 -71 -271 l0 -192 33 -36 c57 -62 147
-63 203 -1 40 43 47 93 42 278 -4 145 -15 184 -63 215 -37 24 -104 28 -144 7z"/>
<path d="M6165 2602 c-43 -27 -50 -37 -95 -146 -96 -232 -206 -424 -351 -616
-392 -519 -940 -880 -1570 -1034 -187 -45 -326 -65 -524 -75 -172 -8 -210 -19
-241 -66 -41 -63 -22 -156 41 -195 78 -48 512 -11 835 72 689 177 1310 603
1726 1185 172 239 384 657 384 754 0 105 -117 174 -205 121z"/>
<path d="M2314 940 c-27 -11 -72 -65 -80 -96 -11 -43 6 -97 40 -129 36 -33
214 -103 401 -156 97 -28 113 -30 149 -19 77 23 121 100 97 173 -20 60 -56 83
-191 122 -69 21 -171 55 -228 76 -101 39 -147 46 -188 29z"/>
</g>
</svg>
