<svg xmlns="http://www.w3.org/2000/svg" viewBox="0 0 502 502"><circle cx="251" cy="251" r="241" fill="#d7e6d8"/><path d="M329 348l-12.409 20.502c-3.657 6.042-5.59 12.97-5.59 20.032v.615c0 5.994-4.857 10.853-10.851 10.856-10.407.005-18.846-8.43-18.846-18.836 0-9.839-3.908-19.275-10.865-26.232l-4.591-4.591c-8.773-8.773-13.701-20.672-13.701-33.078v-29.475c0-9.307-7.545-16.851-16.851-16.851H231.8c-13.885 0-25.142-11.256-25.142-25.142v-15.343c0-14.572 11.813-26.384 26.384-26.384h84.028l27.028 27.028c7.836 7.836 12.238 18.463 12.238 29.544v11.464c0 6.226 5.047 11.273 11.273 11.273 4.891 0 7.348 5.907 3.9 9.375l-11.148 11.214c-8.226 8.274-15.422 17.512-21.433 27.512L329 348z" fill="#4fc497"/><path d="M283.829 57H320.5c6.904 0 12.5 5.596 12.5 12.5S327.404 82 320.5 82h-97.714c-5.917 0-10.713 4.797-10.713 10.713v2.028c0 4.71-1.871 9.227-5.201 12.558l-5.85 5.85c-7.947 7.947-12.412 18.727-12.412 29.966v13.574c0 4.738 3.841 8.579 8.579 8.579h10.081c8.135 0 14.73-6.595 14.73-14.73 0-5.014 1.992-9.823 5.537-13.368l5.17-5.17c3.545-3.545 8.354-5.537 13.368-5.537h19.931c11.693 0 22.907 4.645 31.176 12.913l9.952 9.952c11.65 11.65 18.195 27.451 18.195 43.927v18.036h16.397c15.792 0 30.937 6.273 42.104 17.44l7.969 7.969c8.395 8.395 22.007 8.395 30.402 0 8.55-8.55 8.55-22.413 0-30.963l-3.3-3.3c-7.056-7.056-2.059-19.121 7.92-19.121H481c-.166-.166-.286-2.222-.37-5.63C459.223 110.579 409.227 56.236 344.948 29H283.83c-7.732 0-14 6.268-14 14-.001 7.732 6.267 14 13.999 14zM152.512 306.038v-17.886c0-12.81-5.089-25.094-14.146-34.152l-.193-.193c-5.842-5.842-13.766-9.124-22.028-9.124-7.917 0-15.51-3.145-21.108-8.743l-8.781-8.781c-9.004-9.004-21.215-14.062-33.948-14.062H15.341l-2.787 2.787C10.881 227.349 10 239.071 10 251c0 72.63 32.132 137.752 82.951 181.937V422.75c0-20.407 8.107-39.978 22.537-54.409l19.149-19.15c11.445-11.444 17.875-26.967 17.875-43.153z" fill="#4fc497"/><g fill="#333"><path d="M428.484 73.516C381.076 26.108 318.044 0 251 0S120.924 26.108 73.516 73.516 0 183.956 0 251s26.108 130.076 73.516 177.484S183.956 502 251 502s130.076-26.108 177.484-73.516S502 318.044 502 251s-26.108-130.076-73.516-177.484zm40.062 99.801h-41.725c-8.605 0-16.294 5.137-19.587 13.087-3.293 7.951-1.489 17.02 4.595 23.104l3.3 3.3c4.638 4.637 4.638 12.184 0 16.821-2.171 2.172-5.059 3.368-8.13 3.368s-5.958-1.196-8.13-3.368l-7.969-7.969c-13.135-13.135-30.599-20.369-49.175-20.369h-6.397v-8.036c0-19.265-7.502-37.376-21.124-50.999l-9.952-9.952c-10.216-10.216-23.799-15.843-38.247-15.843h-19.931c-7.721 0-14.98 3.007-20.439 8.466l-5.17 5.169c-5.459 5.459-8.466 12.718-8.466 20.439 0 2.608-2.122 4.73-4.73 4.73h-8.66v-12.154c0-8.648 3.368-16.78 9.483-22.895l5.849-5.849c5.244-5.243 8.131-12.214 8.131-19.629V92.71c0-.394.32-.713.713-.713H320.5c12.407 0 22.5-10.093 22.5-22.5S332.907 47 320.5 47h-36.671c-2.206 0-4-1.794-4-4s1.794-4 4-4h58.868c58.354 25.338 104.274 74.079 125.849 134.317zm-109.824 118.12l-5.452 5.484c-8.784 8.835-16.493 18.73-22.913 29.41l-9.918 16.5-12.403 20.492c-4.603 7.603-7.036 16.32-7.036 25.21v.615c0 .472-.384.856-.856.856h-.004c-2.359 0-4.578-.918-6.247-2.586-1.67-1.669-2.589-3.888-2.589-6.25 0-12.58-4.899-24.407-13.794-33.303l-4.591-4.591c-6.947-6.947-10.773-16.183-10.773-26.007v-29.475c0-14.806-12.045-26.851-26.852-26.851H231.8c-8.349 0-15.142-6.792-15.142-15.142v-15.343c0-9.034 7.35-16.384 16.384-16.384h79.886l24.099 24.1c6.003 6.003 9.309 13.984 9.309 22.473v11.464c0 8.56 5.082 15.955 12.386 19.328zM20 251c0-9.444.583-18.752 1.69-27.902h30.619c10.153 0 19.698 3.954 26.876 11.133l8.781 8.78c7.527 7.527 17.534 11.672 28.179 11.672 5.65 0 10.962 2.2 14.957 6.195l.193.193c7.233 7.233 11.217 16.851 11.217 27.081v17.886c0 13.63-5.308 26.444-14.945 36.082l-19.15 19.15c-13.442 13.443-21.939 30.512-24.58 49.002C44.303 368.799 20 312.684 20 251zm231 231c-56.288 0-107.93-20.247-148.049-53.827v-5.423c0-17.881 6.963-34.693 19.607-47.337l19.15-19.15c13.415-13.416 20.803-31.252 20.803-50.224v-17.886c0-15.573-6.064-30.213-17.075-41.224l-.193-.192c-7.772-7.772-18.106-12.053-29.099-12.053-5.302 0-10.287-2.065-14.036-5.814l-8.781-8.781c-10.957-10.956-25.524-16.99-41.019-16.99h-27.3C47.126 98.635 140.047 20 251 20c7.743 0 15.396.39 22.946 1.138-8.316 3.774-14.117 12.151-14.117 21.862 0 13.234 10.766 24 24 24H320.5c1.378 0 2.5 1.122 2.5 2.5s-1.122 2.5-2.5 2.5h-97.713c-11.421 0-20.713 9.292-20.713 20.713v2.028c0 2.072-.807 4.021-2.273 5.486l-5.85 5.85c-9.893 9.893-15.341 23.047-15.341 37.037v13.574c0 10.245 8.334 18.58 18.579 18.58h10.081c13.636 0 24.73-11.094 24.73-24.73 0-2.379.926-4.615 2.608-6.297l5.169-5.169c.203-.203.414-.393.632-.574.167.195.334.389.518.574l19.932 19.932c-3.833 3.911-3.813 10.186.068 14.068 1.953 1.953 4.512 2.929 7.071 2.929s5.119-.976 7.071-2.929l7-7c3.905-3.905 3.905-10.237 0-14.143l-15.45-15.45c8.875.156 17.197 3.677 23.489 9.97l9.953 9.952c9.844 9.844 15.266 22.934 15.266 36.856v.817H233.04c-20.062 0-36.384 16.322-36.384 36.384V245.8c0 19.377 15.765 35.142 35.142 35.142h3.493c3.778 0 6.852 3.073 6.852 6.851v29.475c0 15.167 5.906 29.425 16.63 40.15l4.591 4.591c5.118 5.118 7.937 11.923 7.937 19.161 0 7.705 3.001 14.948 8.451 20.396 5.446 5.443 12.685 8.44 20.384 8.44h.015C311.648 410 321 400.644 321 389.149v-.614c0-5.238 1.434-10.374 4.146-14.854l12.409-20.502c.005-.009.01-.018.016-.026l9.928-16.517c5.591-9.301 12.305-17.918 19.955-25.613l11.147-11.213c4.428-4.455 5.731-11.08 3.319-16.879s-8.029-9.546-14.31-9.546c-.702 0-1.273-.571-1.273-1.273v-11.464c0-13.832-5.386-26.835-15.167-36.616l-2.215-2.215c10.49 1.524 20.173 6.357 27.804 13.988l7.969 7.969c6.141 6.141 14.207 9.211 22.272 9.211s16.132-3.07 22.272-9.211c6.024-6.024 9.341-14.033 9.341-22.553 0-8.519-3.317-16.528-9.341-22.553l-3.3-3.3c-.198-.198-.567-.567-.26-1.308s.829-.741 1.109-.741h47.888C479.468 211.761 482 231.09 482 251c0 127.374-103.626 231-231 231z"/><path d="M184 85c5.523 0 10-4.477 10-10V54.494c0-5.523-4.477-10-10-10s-10 4.477-10 10V75c0 5.523 4.477 10 10 10zM450.39 314.63c-5.176-1.93-10.935.702-12.863 5.877C408.652 397.961 333.692 450 251 450c-5.523 0-10 4.477-10 10s4.477 10 10 10c45.543 0 89.207-13.849 126.272-40.048 36.24-25.617 63.556-61.046 78.995-102.458 1.929-5.175-.702-10.934-5.877-12.864zM202.433 444.034c-9.714-2.436-19.321-5.642-28.554-9.526-5.092-2.144-10.954.249-13.096 5.339s.249 10.954 5.339 13.096c10.167 4.278 20.747 7.808 31.445 10.491.817.205 1.635.303 2.44.303 4.478 0 8.554-3.03 9.692-7.57 1.344-5.358-1.909-10.79-7.266-12.133z"/></g></svg>